HIERARCHY
ROOT Hips
{
  OFFSET -43.3411 73.6987 0
  CHANNELS 6 Xposition Yposition Zposition Zrotation Xrotation Yrotation
  JOINT Bip01_Pelvis
  {
    OFFSET 0 0 0
    CHANNELS 6 Xposition Yposition Zposition Zrotation Xrotation Yrotation
    JOINT BN_Tail_01
    {
      OFFSET -18.6385 -9.591 -2.032e-005
      CHANNELS 6 Xposition Yposition Zposition Zrotation Xrotation Yrotation
      JOINT BN_Tail_02
      {
        OFFSET 20.9743 0 0
        CHANNELS 6 Xposition Yposition Zposition Zrotation Xrotation Yrotation
        JOINT BN_Tail_03
        {
          OFFSET 20.3015 0 0
          CHANNELS 6 Xposition Yposition Zposition Zrotation Xrotation Yrotation
          JOINT BN_Tail_04
          {
            OFFSET 21.6394 -9.91821e-005 0
            CHANNELS 6 Xposition Yposition Zposition Zrotation Xrotation Yrotation
            End Site
            {
              OFFSET 0 0 0
            }
          }
        }
      }
    }
    JOINT Bip01_Spine
    {
      OFFSET 22.1878 -0.659386 3.048e-005
      CHANNELS 6 Xposition Yposition Zposition Zrotation Xrotation Yrotation
      JOINT Bip01_R_Thigh
      {
        OFFSET -22.1873 0.677109 -17.1024
        CHANNELS 6 Xposition Yposition Zposition Zrotation Xrotation Yrotation
        JOINT Bip01_R_Calf
        {
          OFFSET 34.2647 0 0
          CHANNELS 6 Xposition Yposition Zposition Zrotation Xrotation Yrotation
          JOINT Bip01_R_HorseLink
          {
            OFFSET 20.4429 0 0
            CHANNELS 6 Xposition Yposition Zposition Zrotation Xrotation Yrotation
            JOINT Bip01_R_Foot
            {
              OFFSET 16.5673 0 0
              CHANNELS 6 Xposition Yposition Zposition Zrotation Xrotation Yrotation
              JOINT Bip01_R_Toe0
              {
                OFFSET 9.18784 6.94841 0
                CHANNELS 6 Xposition Yposition Zposition Zrotation Xrotation Yrotation
                JOINT Bip01_R_Toe0Nub
                {
                  OFFSET 1.01907 0 0
                  CHANNELS 6 Xposition Yposition Zposition Zrotation Xrotation Yrotation
                  End Site
                  {
                    OFFSET 0 0 0
                  }
                }
              }
            }
          }
        }
      }
      JOINT Bip01_L_Thigh
      {
        OFFSET -22.1873 0.67701 17.1024
        CHANNELS 6 Xposition Yposition Zposition Zrotation Xrotation Yrotation
        JOINT Bip01_L_Calf
        {
          OFFSET 34.2647 0 0
          CHANNELS 6 Xposition Yposition Zposition Zrotation Xrotation Yrotation
          JOINT Bip01_L_HorseLink
          {
            OFFSET 20.4429 0 0
            CHANNELS 6 Xposition Yposition Zposition Zrotation Xrotation Yrotation
            JOINT Bip01_L_Foot
            {
              OFFSET 16.5673 0 0
              CHANNELS 6 Xposition Yposition Zposition Zrotation Xrotation Yrotation
              JOINT Bip01_L_Toe0
              {
                OFFSET 9.18784 6.9484 1.14441e-005
                CHANNELS 6 Xposition Yposition Zposition Zrotation Xrotation Yrotation
                JOINT Bip01_L_Toe0Nub
                {
                  OFFSET 1.01907 0 0
                  CHANNELS 6 Xposition Yposition Zposition Zrotation Xrotation Yrotation
                  End Site
                  {
                    OFFSET 0 0 0
                  }
                }
              }
            }
          }
        }
      }
      JOINT Bip01_Spine1
      {
        OFFSET 39.3372 -0.0249863 0
        CHANNELS 6 Xposition Yposition Zposition Zrotation Xrotation Yrotation
        JOINT Bip01_Neck
        {
          OFFSET 34.2837 -15.5934 -4.318e-005
          CHANNELS 6 Xposition Yposition Zposition Zrotation Xrotation Yrotation
          JOINT Bip01_R_Clavicle
          {
            OFFSET -17.9452 -11.3131 -6.19287
            CHANNELS 6 Xposition Yposition Zposition Zrotation Xrotation Yrotation
            JOINT Bip01_R_UpperArm
            {
              OFFSET 17.4439 1.52588e-005 -2.28882e-005
              CHANNELS 6 Xposition Yposition Zposition Zrotation Xrotation Yrotation
              JOINT Bip01_R_Forearm
              {
                OFFSET 30.6251 1.14441e-005 0
                CHANNELS 6 Xposition Yposition Zposition Zrotation Xrotation Yrotation
                JOINT Bip01_R_Hand
                {
                  OFFSET 31.2039 0 0
                  CHANNELS 6 Xposition Yposition Zposition Zrotation Xrotation Yrotation
                  JOINT Bip01_R_Finger0
                  {
                    OFFSET 22.1039 0.255862 -0.37902
                    CHANNELS 6 Xposition Yposition Zposition Zrotation Xrotation Yrotation
                    JOINT Bip01_R_Finger0Nub
                    {
                      OFFSET 12.0552 0 0
                      CHANNELS 6 Xposition Yposition Zposition Zrotation Xrotation Yrotation
                      End Site
                      {
                        OFFSET 0 0 0
                      }
                    }
                  }
                }
              }
            }
          }
          JOINT Bip01_L_Clavicle
          {
            OFFSET -17.9452 -11.3132 6.19281
            CHANNELS 6 Xposition Yposition Zposition Zrotation Xrotation Yrotation
            JOINT Bip01_L_UpperArm
            {
              OFFSET 17.444 0 1.14441e-005
              CHANNELS 6 Xposition Yposition Zposition Zrotation Xrotation Yrotation
              JOINT Bip01_L_Forearm
              {
                OFFSET 30.6251 0 0
                CHANNELS 6 Xposition Yposition Zposition Zrotation Xrotation Yrotation
                JOINT Bip01_L_Hand
                {
                  OFFSET 31.204 0 0
                  CHANNELS 6 Xposition Yposition Zposition Zrotation Xrotation Yrotation
                  JOINT Bip01_L_Finger0
                  {
                    OFFSET 22.1039 0.255856 0.379024
                    CHANNELS 6 Xposition Yposition Zposition Zrotation Xrotation Yrotation
                    JOINT Bip01_L_Finger0Nub
                    {
                      OFFSET 12.0552 0 0
                      CHANNELS 6 Xposition Yposition Zposition Zrotation Xrotation Yrotation
                      End Site
                      {
                        OFFSET 0 0 0
                      }
                    }
                  }
                }
              }
            }
          }
          JOINT Bip01_Neck1
          {
            OFFSET 14.9359 -0.0106278 0
            CHANNELS 6 Xposition Yposition Zposition Zrotation Xrotation Yrotation
            JOINT Bip01_Head
            {
              OFFSET 14.3578 0.505501 0
              CHANNELS 6 Xposition Yposition Zposition Zrotation Xrotation Yrotation
              JOINT BN_Ear_L_01
              {
                OFFSET 3.76994 -2.35629 12.3444
                CHANNELS 6 Xposition Yposition Zposition Zrotation Xrotation Yrotation
                End Site
                {
                  OFFSET 0 0 0
                }
              }
              JOINT BN_Ear_R_01
              {
                OFFSET 3.76995 -2.35622 -12.3442
                CHANNELS 6 Xposition Yposition Zposition Zrotation Xrotation Yrotation
                End Site
                {
                  OFFSET 0 0 0
                }
              }
              JOINT BN_Mouth_01
              {
                OFFSET 11.8395 10.8645 1.27e-005
                CHANNELS 6 Xposition Yposition Zposition Zrotation Xrotation Yrotation
                JOINT BN_Tongue_01
                {
                  OFFSET 9.73752 3.21674 1.016e-005
                  CHANNELS 6 Xposition Yposition Zposition Zrotation Xrotation Yrotation
                  JOINT BN_Tongue_02
                  {
                    OFFSET 9.04304 0.053505 0
                    CHANNELS 6 Xposition Yposition Zposition Zrotation Xrotation Yrotation
                    End Site
                    {
                      OFFSET 0 0 0
                    }
                  }
                }
                JOINT BN_Beard_01
                {
                  OFFSET 6.93466 -0.751793 0
                  CHANNELS 6 Xposition Yposition Zposition Zrotation Xrotation Yrotation
                  JOINT BN_Beard_02
                  {
                    OFFSET 13.0965 1.52588e-005 0
                    CHANNELS 6 Xposition Yposition Zposition Zrotation Xrotation Yrotation
                    End Site
                    {
                      OFFSET 0 0 0
                    }
                  }
                }
              }
              JOINT Bip01_HeadNub
              {
                OFFSET 25.6158 0 0
                CHANNELS 6 Xposition Yposition Zposition Zrotation Xrotation Yrotation
                End Site
                {
                  OFFSET 0 0 0
                }
              }
            }
          }
        }
      }
    }
  }
}
MOTION
Frames:	4
Frame Time:	0.0333333
-52.7318 49.5368 1.37519 82.4106 -85.1051 165.447 -3.8147e-006 4.76837e-007 7.10543e-015 -95.2357 -30.9816 -90.5573 -18.6385 -9.591 -2.22045e-016 -54.5097 2.48003 -169.792 20.9743 -1.1454e-011 -0.00129318 22.8099 1.20965 -10.8484 20.3015 -1.52588e-005 -0.000927448 14.6938 -2.79883 -33.4669 21.6394 1.81615e-011 -0.000839234 10.0508 -9.25489 -39.8418 18.6865 -11.9839 -0.246751 -25.7725 12.1764 4.42959 -20.6561 -0.949549 -18.6905 -72.5257 -9.15515 162.274 34.2647 -5.68434e-014 3.8147e-006 -89.6703 -1.80105e-007 9.87361e-006 20.4429 3.8147e-006 -1.90735e-006 121.214 -2.99457e-007 -3.59924e-007 16.5673 0 -7.10543e-015 -13.9693 5.61658 12.7644 9.18785 6.9484 -3.81719e-006 91.3394 7.41219e-008 4.00825e-007 1.01907 -2.38418e-007 3.8147e-006 5.41844e-008 -1.28812e-008 5.69396e-009 -23.2394 6.2651 14.645 -134.89 14.3163 -175.533 34.2647 4.76837e-007 5.72205e-006 -129.621 -6.74791e-006 7.54518e-006 20.4429 1.90735e-006 -1.90735e-006 120.238 -4.37314e-006 -8.91978e-006 16.5673 -3.90799e-014 1.90735e-006 -34.7652 -8.91902 -1.49452 9.18784 6.9484 3.81616e-006 89.9962 -6.33506e-008 -2.24569e-006 1.01907 2.02061e-014 7.10543e-015 -179.96 -0.00010803 7.15664e-005 39.3311 -0.0241966 -0.000952244 -4.59068 -0.53938 4.10579 34.2892 -15.5918 2.87003e-006 42.7545 -0.0920609 -4.45305 -21.4363 2.87416 -4.5681 133.926 -43.7205 126.921 17.4439 -7.81598e-013 -7.62939e-006 53.9013 -17.5551 -96.8343 30.6251 0 3.81469e-006 -56.3124 4.2133e-006 6.90718e-006 31.204 -6.3949e-014 5.72204e-006 2.85519 81.8141 -26.9643 22.1039 0.255845 -0.379031 -8.70699 9.65667 -31.0985 12.0552 -3.81471e-006 -2.38418e-007 179.96 1.6788e-005 -3.2696e-006 -20.4956 2.83131 7.78172 141.118 50.2731 -101.323 17.4439 1.42109e-014 3.8147e-006 42.578 -57.5315 77.0464 30.6251 -4.29154e-006 3.81469e-006 -76.3182 -4.27538e-006 -1.51474e-005 31.2039 -3.81471e-006 -3.81469e-006 -165.871 -68.63 178.138 22.1039 0.255862 0.37902 -10.7638 6.07336 6.44606 12.0552 1.90735e-006 -2.84216e-014 -1.01793e-005 1.03261e-005 4.23307e-007 14.9354 -0.010643 0.000170231 -11.2559 -6.35109 6.58964 14.3578 0.505478 -4.72907e-007 -30.508 -1.068 -3.4972 3.7699 -2.35629 12.3444 -150.188 -2.41052 -60.2827 3.76993 -2.35623 -12.3442 21.4419 9.70452 127.214 11.8394 10.8646 2.74618e-008 -171.352 -4.08305 -178.744 9.73749 3.21676 2.36146e-008 -2.85749 1.88219e-007 2.59284e-008 2.55462 -1.10587 -0.153764 4.77834 -2.94618 -1.72235 6.93466 -0.751771 -5.51884e-009 -88.6551 0.788435 -0.251617 13.0966 1.52588e-005 -6.66134e-015 -9.20143 0.355988 -12.3135 25.6158 7.6294e-006 -2.38419e-007 -2.20242e-008 1.08717e-006 -3.42622e-008 
-52.5573 49.717 1.37519 82.7712 -85.0514 165.912 -3.8147e-006 4.76837e-007 0 -95.2241 -30.8536 -90.1529 -18.6385 -9.591 -5.32907e-015 -54.1108 2.47674 -168.23 20.9743 -1.13971e-011 -0.00129318 23.1247 0.979693 -9.23049 20.3015 -1.52588e-005 -0.000927448 15.1849 -3.21709 -34.8744 21.6394 1.78062e-011 -0.000839234 9.19518 -9.50394 -43.0729 18.7139 -11.9431 -0.115486 -25.5703 12.3332 4.06382 -20.7625 -0.995081 -18.6904 -72.7307 -9.11098 162.363 34.2647 -4.26326e-014 3.8147e-006 -89.2322 -1.06163e-007 9.87528e-006 20.4429 3.8147e-006 -1.90735e-006 120.343 -2.90872e-007 -3.65121e-007 16.5673 4.26326e-014 -7.10543e-015 -13.6317 5.6268 12.6772 9.18785 6.9484 -3.81702e-006 91.3394 7.31403e-008 3.99445e-007 1.01907 -2.38418e-007 3.8147e-006 5.41844e-008 -1.28812e-008 5.69396e-009 -23.1325 6.31169 14.6408 -134.465 14.3363 -175.561 34.2647 4.76837e-007 5.72205e-006 -129.432 -6.22859e-006 7.97487e-006 20.4429 1.90735e-006 -1.90735e-006 120.463 -4.40928e-006 -8.8995e-006 16.5673 -3.90799e-014 1.90735e-006 -34.6707 -8.83378 -1.54641 9.18784 6.9484 3.81694e-006 89.9962 -7.05907e-008 -2.25214e-006 1.01907 6.4393e-015 -7.10543e-015 -179.96 -0.00010803 7.15664e-005 39.3311 -0.0241966 -0.000952244 -4.61203 -0.529796 4.1096 34.2892 -15.5918 2.87014e-006 42.6191 -0.104513 -4.47824 -21.4453 2.82513 -4.55674 134.061 -43.4401 126.809 17.4439 -7.95809e-013 -7.62939e-006 53.6474 -17.1686 -97.01 30.6251 7.10544e-015 3.81469e-006 -56.0032 -4.05149e-006 1.24795e-005 31.204 -6.75017e-014 5.72204e-006 2.31075 81.8317 -26.2827 22.1039 0.255845 -0.379031 -8.70651 9.65637 -31.4264 12.0552 -3.81471e-006 -2.38418e-007 179.96 1.6788e-005 -3.26959e-006 -20.4985 2.78056 7.79262 141.541 51.9202 -101.424 17.4439 -7.10543e-015 3.8147e-006 43.8054 -57.9845 76.5029 30.6251 -4.29154e-006 3.81469e-006 -74.7741 -1.42638e-005 -1.2418e-005 31.2039 -3.81471e-006 -3.81469e-006 -167.222 -68.6587 177.989 22.1039 0.255862 0.37902 -10.7632 6.07186 8.87416 12.0552 1.90735e-006 -2.13162e-014 -1.01793e-005 1.03261e-005 4.23307e-007 14.9354 -0.010643 0.000170231 -10.7805 -6.23382 6.56063 14.3578 0.505478 -4.72946e-007 -30.7146 -1.11945 -3.39298 3.7699 -2.35629 12.3444 -149.646 -3.15797 -60.3953 3.76993 -2.35623 -12.3442 21.4874 9.65124 127.228 11.8394 10.8646 2.74599e-008 -171.41 -4.01271 -178.772 9.73749 3.21676 2.34319e-008 -2.85749 1.87907e-007 2.57662e-008 2.55462 -1.10587 -0.153764 4.77834 -2.94618 -1.72235 6.93466 -0.751771 -5.47614e-009 -88.8709 0.721214 -0.0911895 13.0966 1.52588e-005 -5.32907e-015 -10.0942 0.0697882 -11.4993 25.6158 7.6294e-006 -2.38419e-007 -2.20242e-008 1.08717e-006 -3.42622e-008 
-52.3549 49.9261 1.37519 83.1935 -84.988 166.46 -3.8147e-006 4.76837e-007 0 -95.2151 -30.7152 -89.726 -18.6385 -9.591 -1.55431e-015 -53.7243 2.47092 -166.734 20.9743 -1.15108e-011 -0.00129318 23.4201 0.746988 -7.58416 20.3015 -1.52587e-005 -0.000927448 15.6335 -3.59269 -36.1321 21.6394 1.7593e-011 -0.000839234 8.39068 -9.64612 -45.9504 18.7433 -11.8973 0.0244886 -25.3419 12.4771 3.688 -20.8716 -1.03554 -18.6947 -72.943 -9.06734 162.498 34.2647 -7.10543e-014 3.8147e-006 -88.7067 -1.73635e-008 9.87631e-006 20.4429 3.8147e-006 -1.90735e-006 119.328 -2.77097e-007 -3.73423e-007 16.5673 2.84217e-014 0 -13.2399 5.63989 12.5757 9.18785 6.9484 -3.81688e-006 91.3394 7.21756e-008 3.98258e-007 1.01907 -2.38418e-007 3.8147e-006 5.41844e-008 -1.28812e-008 5.69396e-009 -23.0219 6.35537 14.6329 -134.003 14.3407 -175.567 34.2647 4.76837e-007 5.72205e-006 -129.184 -6.1918e-006 8.00443e-006 20.4429 1.90735e-006 -1.90735e-006 120.676 -4.44343e-006 -8.8796e-006 16.5673 -2.4869e-014 1.90735e-006 -34.5441 -8.72453 -1.61328 9.18784 6.9484 3.8174e-006 89.9962 -7.7856e-008 -2.25589e-006 1.01907 9.54792e-015 -7.10543e-015 -179.96 -0.00010803 7.15664e-005 39.3311 -0.0241966 -0.000952244 -4.68378 -0.511307 4.11727 34.2892 -15.5918 2.87016e-006 42.4404 -0.118837 -4.50952 -21.4569 2.76094 -4.54241 134.226 -43.1466 126.674 17.4439 -7.67387e-013 -7.62939e-006 53.3495 -16.7323 -97.1913 30.6251 0 3.81469e-006 -55.6108 4.30783e-006 6.84178e-006 31.204 -6.03962e-014 5.72204e-006 1.67052 81.853 -25.5117 22.1039 0.255845 -0.379031 -8.70602 9.65608 -31.7578 12.0552 -3.81471e-006 -2.38418e-007 179.96 1.6788e-005 -3.26958e-006 -20.5023 2.71433 7.80634 141.886 52.6109 -101.55 17.4439 0 3.8147e-006 44.3099 -58.0983 76.3552 30.6251 -4.29154e-006 3.81469e-006 -73.9577 -1.44074e-005 -1.2227e-005 31.2039 -3.81471e-006 -3.81469e-006 -167.794 -68.7484 178.178 22.1039 0.255862 0.37902 -10.7624 6.07328 10.0813 12.0552 1.90735e-006 -7.10541e-015 -1.01793e-005 1.03261e-005 4.23307e-007 14.9354 -0.010643 0.000170231 -10.2382 -6.08899 6.51427 14.3578 0.505478 -4.72989e-007 -30.8936 -1.17849 -3.27984 3.7699 -2.35629 12.3444 -149.379 -3.52312 -60.4754 3.76993 -2.35623 -12.3442 21.2269 9.95696 127.143 11.8394 10.8646 2.71411e-008 -171.489 -4.08348 -178.802 9.73749 3.21676 2.30908e-008 -2.85749 1.86562e-007 2.54633e-008 2.55462 -1.10587 -0.153764 4.77834 -2.94618 -1.72235 6.93466 -0.751771 -5.39643e-009 -89.1298 0.628163 0.16162 13.0966 1.52588e-005 -2.44249e-015 -10.9908 -0.232345 -10.6746 25.6158 7.6294e-006 -2.38419e-007 -2.20242e-008 1.08717e-006 -3.42622e-008 
-52.1329 50.1553 1.37519 83.6294 -84.9186 167.033 -3.8147e-006 4.76837e-007 -7.10543e-015 -95.2038 -30.5649 -89.2901 -18.6385 -9.591 4.44089e-016 -53.3641 2.46352 -165.36 20.9743 -1.15676e-011 -0.00129318 23.6791 0.523662 -5.97956 20.3015 -1.52587e-005 -0.000927448 16.0132 -3.9075 -37.1891 21.6394 1.75078e-011 -0.000839234 7.69448 -9.70276 -48.3603 18.7736 -11.8484 0.167925 -25.0982 12.604 3.31364 -20.9799 -1.06985 -18.7028 -73.1613 -8.99227 162.634 34.2647 -4.26326e-014 3.8147e-006 -88.1125 8.33671e-008 9.87676e-006 20.4429 3.8147e-006 -1.90735e-006 118.219 1.45539e-007 -6.00834e-007 16.5673 2.84217e-014 0 -12.811 5.65698 12.474 9.18785 6.9484 -3.81671e-006 91.3394 7.12395e-008 3.96821e-007 1.01907 -2.38418e-007 3.8147e-006 5.41844e-008 -1.28812e-008 5.69396e-009 -22.9112 6.39478 14.6217 -133.528 14.3605 -175.555 34.2647 4.76837e-007 5.72205e-006 -128.894 -6.14874e-006 8.03861e-006 20.4429 1.90735e-006 -1.90735e-006 120.859 -4.47274e-006 -8.86163e-006 16.5673 -2.13163e-014 1.90735e-006 -34.4199 -8.61754 -1.67906 9.18784 6.9484 3.81813e-006 89.9962 -8.55658e-008 -2.26195e-006 1.01907 2.44249e-014 -1.42109e-014 -179.96 -0.00010803 7.15665e-005 39.3311 -0.0241966 -0.000952244 -4.79245 -0.477711 4.13222 34.2892 -15.5918 2.87016e-006 42.232 -0.134121 -4.54485 -21.4701 2.68538 -4.52594 134.426 -42.8391 126.536 17.4439 -7.38965e-013 -7.62939e-006 53.0229 -16.26 -97.381 30.6251 -1.42109e-014 3.81469e-006 -55.1494 4.37323e-006 6.80067e-006 31.204 -2.13163e-014 5.72204e-006 0.930221 81.8734 -24.6532 22.1039 0.255845 -0.379031 -8.70567 9.65547 -32.1139 12.0552 -3.81471e-006 -2.38418e-007 179.96 1.6788e-005 -3.26958e-006 -20.5066 2.63652 7.82211 142.166 52.6845 -101.674 17.4439 -7.10543e-015 3.8147e-006 44.4622 -57.7559 76.5463 30.6251 -4.29154e-006 3.81469e-006 -73.962 -1.44046e-005 -1.21963e-005 31.204 -3.81471e-006 -3.81469e-006 -167.778 -68.8791 178.548 22.1039 0.255862 0.37902 -10.7622 6.07295 10.4762 12.0552 1.90735e-006 -2.84216e-014 -1.01793e-005 1.03261e-005 4.23338e-007 14.9354 -0.010643 0.000170231 -9.65641 -5.93293 6.45396 14.3578 0.505478 -4.7304e-007 -31.0408 -1.24094 -3.16486 3.7699 -2.35629 12.3444 -149.118 -3.8815 -60.5523 3.76993 -2.35623 -12.3442 20.9718 10.2571 127.06 11.8394 10.8646 2.66176e-008 -171.589 -4.00539 -178.849 9.73749 3.21676 2.26092e-008 -2.85749 1.85821e-007 2.50357e-008 2.55462 -1.10587 -0.153764 4.77834 -2.94618 -1.72235 6.93466 -0.751771 -5.28388e-009 -89.4233 0.509399 0.484605 13.0966 1.52588e-005 -5.99521e-015 -11.7821 -0.567677 -9.14672 25.6158 7.6294e-006 -2.38419e-007 -2.20242e-008 1.08717e-006 -3.42622e-008 
